PathFileType	4	(X/Y/Z)	N:\Shared_Data\Ergonomics\New Model Testing\10-03-21\SquatStands.trc
DataRate	CameraRate	NumFrames	NumMarkers	Units	OrigDataRate	OrigDataStartFrame	OrigNumFrames	
100	100	4	53	m	100	1877	305
Frame#	Time	R_Knee_Med			R_Knee_Lat			R_Thigh_Upper			R_Thigh_Front			R_Thigh_Rear			L_Knee_Med			L_Knee_Lat			L_Thigh_Upper			L_Thigh_Front			L_Thigh_Rear			R_Ankle_Med			R_Ankle_Lat			R_Shank_Upper			R_Shank_Front			R_Shank_Rear			L_Ankle_Med			L_Ankle_Lat			L_Shank_Upper			L_Shank_Front			L_Shank_Rear			R_Heel			R_MTP1			R_MTP5			L_Heel			L_MTP1			L_MTP5			V_Sacral			R_Pelvis			R_ASIS			L_ASIS			L_Pelvis			Clavicle			Chest			R_Acromium			L_Acromium			R_Elbow			R_Elbow_Parallel			R_Elbow_Adjacent			L_Elbow			L_Elbow_Parallel			L_Elbow_Adjacent			R_Forearm_Upper			R_Forearm_Middle			R_Forearm_Lower			L_Forearm_Upper			L_Forearm_Middle			L_Forearm_Lower			R_Hand			R_MCP2			R_MCP5			L_Hand			L_MCP2			L_MCP5			
		X1	Y1	Z1	X2	Y2	Z2	X3	Y3	Z3	X4	Y4	Z4	X5	Y5	Z5	X6	Y6	Z6	X7	Y7	Z7	X8	Y8	Z8	X9	Y9	Z9	X10	Y10	Z10	X11	Y11	Z11	X12	Y12	Z12	X13	Y13	Z13	X14	Y14	Z14	X15	Y15	Z15	X16	Y16	Z16	X17	Y17	Z17	X18	Y18	Z18	X19	Y19	Z19	X20	Y20	Z20	X21	Y21	Z21	X22	Y22	Z22	X23	Y23	Z23	X24	Y24	Z24	X25	Y25	Z25	X26	Y26	Z26	X27	Y27	Z27	X28	Y28	Z28	X29	Y29	Z29	X30	Y30	Z30	X31	Y31	Z31	X32	Y32	Z32	X33	Y33	Z33	X34	Y34	Z34	X35	Y35	Z35	X36	Y36	Z36	X37	Y37	Z37	X38	Y38	Z38	X39	Y39	Z39	X40	Y40	Z40	X41	Y41	Z41	X42	Y42	Z42	X43	Y43	Z43	X44	Y44	Z44	X45	Y45	Z45	X46	Y46	Z46	X47	Y47	Z47	X48	Y48	Z48	X49	Y49	Z49	X50	Y50	Z50	X51	Y51	Z51	X52	Y52	Z52	X53	Y53	Z53	

1877	18.76	-0.013032235	0.43127103	0.20433539	-0.045273705	0.4305434	0.33602078	-0.12032839	0.63241882	0.25856403	-0.019179365	0.5641571	0.24875958	-0.052830936	0.55048938	0.31277658	-0.040727737	0.4406618	-0.18565962	-0.091791855	0.48114786	-0.3082326	-0.16762511	0.64726953	-0.19096405	-0.065385696	0.58428979	-0.20015691	-0.10506145	0.57144788	-0.26894427	-0.23052625	0.11511909	0.17644926	-0.29093253	0.10801195	0.25428149	-0.062087109	0.29512302	0.2849183	-0.13589095	0.21460286	0.23442537	-0.1637222	0.22126579	0.2921445	-0.28105566	0.14052357	-0.20737456	-0.34784299	0.13969974	-0.28183292	-0.12019109	0.31050925	-0.29327191	-0.18794623	0.22320403	-0.24681206	-0.2221454	0.25934055	-0.30394513	-0.33839734	0.10282615	0.18930333	-0.13047264	0.044347637	0.22275652	-0.19439868	0.024776735	0.29206488	-0.37925024	0.14948178	-0.23015913	-0.22086345	0.053664528	-0.22466856	-0.26608444	0.010596166	-0.29389255	-0.5011937	0.72825061	0.027750093	-0.31498062	0.73483282	0.22599121	-0.26083838	0.70179346	0.16438748	-0.27684048	0.65383301	-0.096809273	-0.34190256	0.69619238	-0.16562877	0.11551263	0.93463824	-0.014614997	-0.012763632	0.79600977	0.0053315711	0.0290408	0.99424121	0.16152835	0.0015823497	0.98877692	-0.16265607	-0.19561661	0.7894574	0.37100275	-0.15705507	0.85949921	0.337181	-0.084392067	0.81407422	0.31731277	-0.25922189	0.75526471	-0.30663266	-0.21751952	0.82877289	-0.2937225	-0.13892041	0.80217352	-0.29854117	-0.10037256	0.74092883	0.36419113	-0.10616332	0.62408911	0.40348044	-0.10343879	0.53102588	0.42875052	-0.15538594	0.68650592	-0.33232617	-0.15847667	0.60081781	-0.35618231	-0.1568203	0.51476813	-0.3739133	-0.10646639	0.47969492	0.44575974	-0.074005692	0.43281686	0.41632733	-0.13149353	0.44060983	0.47050677	-0.15202876	0.45724445	-0.38463327	-0.11735701	0.41288287	-0.37862674	-0.18194933	0.4142724	-0.40512762
1878	18.77	-0.012993226	0.43112164	0.20414081	-0.044978088	0.43039337	0.33589389	-0.12008672	0.63229541	0.25852457	-0.018980272	0.56402209	0.24855652	-0.05254372	0.55034607	0.31258359	-0.040880077	0.440827	-0.18547551	-0.092162918	0.48137173	-0.30801733	-0.16804771	0.64733569	-0.19051778	-0.065785072	0.58446228	-0.19981352	-0.10550274	0.57163202	-0.26859329	-0.23065709	0.11510998	0.17665524	-0.29089725	0.10799572	0.25461801	-0.061990673	0.29495987	0.28483377	-0.13591573	0.21450356	0.23446381	-0.16342455	0.22121823	0.29217255	-0.28109387	0.14049252	-0.20727481	-0.3479212	0.13967513	-0.28173682	-0.12040897	0.31065936	-0.2931666	-0.18806334	0.22326498	-0.24674033	-0.22233751	0.25942319	-0.30381656	-0.3384899	0.10277903	0.18978584	-0.13051572	0.044363552	0.2228241	-0.19437077	0.024713875	0.29222925	-0.3792977	0.14939716	-0.23003094	-0.22085477	0.053638165	-0.22464044	-0.26608295	0.010604344	-0.29388873	-0.50115335	0.72834564	0.028380251	-0.31460889	0.73469611	0.22644604	-0.26047156	0.70166028	0.16484036	-0.27702325	0.65370062	-0.096395226	-0.34209036	0.69606079	-0.16520387	0.11651058	0.93267737	-0.014398478	-0.012265395	0.79445197	0.0055469275	0.030080469	0.99260968	0.1617856	0.002543771	0.9872348	-0.1624462	-0.19677887	0.78979712	0.37114725	-0.15754053	0.85953741	0.33735837	-0.085147652	0.81350031	0.31772598	-0.25986868	0.75517548	-0.30613358	-0.21760138	0.82847491	-0.29339328	-0.13915607	0.8013609	-0.29812381	-0.1018371	0.74060913	0.36463559	-0.10858075	0.62384869	0.40382806	-0.10651076	0.53079651	0.42908496	-0.15624155	0.6859668	-0.33185745	-0.15960777	0.60030933	-0.35569397	-0.15826062	0.51426947	-0.37341119	-0.10991775	0.47941187	0.44600726	-0.077839622	0.43229382	0.41659338	-0.13529572	0.44047739	0.47064612	-0.15363365	0.45673105	-0.38407104	-0.11905786	0.41232971	-0.37810294	-0.18370067	0.4138465	-0.40453696
1879	18.78	-0.012933185	0.43093933	0.20409833	-0.044724808	0.43021872	0.33591318	-0.11983756	0.63215009	0.25859625	-0.01877713	0.56386182	0.24850989	-0.052277683	0.55017981	0.31254047	-0.041000809	0.44099435	-0.18538371	-0.092547821	0.48159128	-0.30789294	-0.16842511	0.64738275	-0.19011075	-0.066170425	0.58461926	-0.19956184	-0.10595251	0.57180096	-0.26829279	-0.23077925	0.11511298	0.17687669	-0.29087299	0.10797249	0.25495685	-0.061896496	0.29479465	0.28485593	-0.13591301	0.21442343	0.23457344	-0.1631554	0.22117313	0.29228024	-0.28112585	0.14046771	-0.20716234	-0.34800476	0.13965053	-0.28162973	-0.12063741	0.31080759	-0.29310599	-0.18819305	0.22332532	-0.24669696	-0.22254251	0.25950647	-0.30369589	-0.33859088	0.10277109	0.19022932	-0.13056387	0.044377296	0.22290475	-0.19435239	0.024639614	0.29241156	-0.37933908	0.14931534	-0.22988387	-0.22083885	0.05362838	-0.2246165	-0.26608304	0.01061481	-0.29388324	-0.5010947	0.7283913	0.029021669	-0.31422174	0.7345282	0.22693501	-0.26008932	0.70149597	0.16532736	-0.27717706	0.65353265	-0.095952049	-0.34224918	0.69589362	-0.16474983	0.11747758	0.93073981	-0.014184585	-0.011755748	0.79291602	0.0057667494	0.031113335	0.99100238	0.1620464	0.0035050266	0.98571423	-0.16223891	-0.19790219	0.79013489	0.37125751	-0.15800262	0.85955743	0.33750876	-0.085900391	0.81289844	0.31807507	-0.26053186	0.75512329	-0.30562228	-0.21770488	0.82821301	-0.29302597	-0.13941696	0.8005885	-0.29770718	-0.10328091	0.74027344	0.36504565	-0.11098795	0.62360089	0.40417319	-0.10960728	0.53057324	0.42944205	-0.15711716	0.68546417	-0.33139172	-0.1607704	0.59983844	-0.35522348	-0.15973956	0.51381177	-0.37294067	-0.11339106	0.47915366	0.44629544	-0.081680206	0.43177438	0.41689615	-0.13913734	0.44035818	0.47081943	-0.15528798	0.45625824	-0.38352158	-0.12081104	0.41181592	-0.37762204	-0.18550679	0.41347018	-0.40398465
1880	18.79	-0.012843817	0.43074344	0.20419162	-0.044503048	0.43003235	0.33606177	-0.11958768	0.63199585	0.25877121	-0.018572582	0.56368866	0.24860559	-0.052032997	0.55000775	0.31264041	-0.041099655	0.44116293	-0.18536604	-0.092940041	0.48179837	-0.30783435	-0.16875146	0.64740662	-0.18973499	-0.066541237	0.58476202	-0.19938177	-0.10640691	0.57195007	-0.26803247	-0.23087703	0.1151323	0.17708461	-0.29085193	0.10795264	0.25526512	-0.061796745	0.29463541	0.28496295	-0.13587108	0.21436819	0.23472969	-0.16293875	0.22113707	0.29244794	-0.28114908	0.1404483	-0.20702769	-0.34809219	0.13962761	-0.28150485	-0.1208702	0.31095288	-0.2930766	-0.18833354	0.22338518	-0.24666992	-0.2227489	0.25958704	-0.30357309	-0.33868906	0.10281491	0.19059399	-0.13060959	0.04438797	0.22298645	-0.19434158	0.024566307	0.29259009	-0.37937274	0.14923787	-0.22970987	-0.22081595	0.053628155	-0.22458644	-0.26608398	0.010630867	-0.29387445	-0.50102295	0.72838879	0.029671583	-0.3138317	0.73434344	0.22744261	-0.25970419	0.70131488	0.16583299	-0.27729987	0.65333289	-0.095483742	-0.34237704	0.69569476	-0.16427068	0.11841951	0.92882678	-0.013967815	-0.011232957	0.79140533	0.0059931326	0.032140446	0.98942487	0.16231245	0.0044687624	0.98421515	-0.16203592	-0.19898907	0.79047211	0.37133865	-0.15843967	0.85956268	0.33763007	-0.086652641	0.81225647	0.31834277	-0.2612056	0.75511108	-0.30509714	-0.21782745	0.8279895	-0.29262152	-0.13970074	0.79986139	-0.29729614	-0.10470086	0.73991968	0.36541153	-0.11336477	0.62334851	0.40451193	-0.11270481	0.53035291	0.42981448	-0.15801106	0.68500134	-0.33093301	-0.16196684	0.59940918	-0.35477625	-0.16125848	0.51339661	-0.37249741	-0.11686603	0.47892822	0.44662964	-0.085501518	0.43126706	0.4172417	-0.14299086	0.44026077	0.47102936	-0.15699367	0.45582748	-0.38298584	-0.12262092	0.41133685	-0.37719559	-0.18737117	0.41314563	-0.40347363
